<svg width="170" height="150" viewBox="0 0 170 150" fill="none" xmlns="http://www.w3.org/2000/svg">
<path d="M104.921 36.3798C104.447 36.3738 103.987 36.2204 103.605 35.9411C103.223 35.6617 102.937 35.2702 102.787 34.821C102.637 34.3717 102.631 33.8869 102.769 33.434C102.908 32.981 103.184 32.5824 103.559 32.2935C111.729 26.5132 121.569 23.5697 131.571 23.9135C139.448 23.9135 150.759 25.246 159.702 31.6716C160.191 32.0225 160.521 32.5525 160.621 33.146C160.721 33.7395 160.582 34.3485 160.235 34.84C159.874 35.3264 159.337 35.6516 158.739 35.7458C158.14 35.8399 157.529 35.6955 157.037 35.3434C149.443 30.5174 140.562 28.1114 131.571 28.444C122.594 28.139 113.761 30.7577 106.401 35.906C105.982 36.2396 105.456 36.4081 104.921 36.3798Z" fill="#1E1E1E"/>
<path d="M167.786 57.256C167.419 57.2526 167.059 57.1623 166.735 56.9924C166.411 56.8225 166.131 56.5779 165.92 56.2788C160.797 49.0537 151.647 39.4301 131.571 39.4301C124.896 39.262 118.279 40.7088 112.283 43.6474C106.287 46.5861 101.09 50.9296 97.1333 56.3084C96.778 56.7928 96.2459 57.1174 95.6526 57.2116C95.0594 57.3059 94.4529 57.1622 93.9649 56.8118C93.709 56.6337 93.4928 56.4043 93.3302 56.1382C93.1676 55.8721 93.062 55.5751 93.0203 55.266C92.9785 54.957 93.0014 54.6426 93.0876 54.3429C93.1737 54.0432 93.3213 53.7647 93.5208 53.525C97.9072 47.5993 103.653 42.8143 110.275 39.573C116.897 36.3317 124.201 34.7289 131.571 34.8995C148.183 34.8995 160.62 41.0587 169.592 53.673C169.936 54.1682 170.07 54.7796 169.965 55.3734C169.859 55.9672 169.523 56.4951 169.029 56.8414C168.663 57.0953 168.231 57.2392 167.786 57.256Z" fill="#1E1E1E"/>
<path d="M120.556 112.747C120.097 112.745 119.648 112.605 119.269 112.347C118.889 112.089 118.595 111.723 118.424 111.296C118.306 111.017 118.246 110.717 118.248 110.414C118.25 110.111 118.313 109.812 118.436 109.534C118.558 109.257 118.735 109.007 118.957 108.801C119.179 108.595 119.441 108.436 119.727 108.335C132.667 103.361 140.455 93.1743 140.455 81.0633C140.543 79.8741 140.374 78.6798 139.959 77.5619C139.544 76.4439 138.892 75.4287 138.049 74.5855C137.206 73.7423 136.191 73.0909 135.073 72.6757C133.955 72.2606 132.761 72.0915 131.571 72.1799C126.064 72.1799 123.399 75.1411 122.688 82.0997C122.358 85.3543 120.779 88.3542 118.283 90.469C115.787 92.5838 112.568 93.649 109.304 93.4408C107.548 93.4663 105.806 93.1258 104.189 92.4411C102.573 91.7564 101.116 90.7425 99.9127 89.4639C98.7093 88.1852 97.7854 86.67 97.1999 85.0147C96.6143 83.3593 96.38 81.6001 96.5117 79.8492C96.6754 70.6941 100.454 61.9753 107.022 55.5956C113.59 49.2159 122.415 45.6933 131.571 45.7964C140.96 45.7962 149.966 49.5115 156.624 56.1305C163.282 62.7495 167.05 71.7344 167.105 81.1225C166.896 87.7329 165.502 94.2521 162.989 100.37C162.748 100.915 162.305 101.346 161.753 101.573C161.201 101.799 160.583 101.803 160.028 101.584C159.752 101.47 159.502 101.304 159.292 101.093C159.082 100.882 158.915 100.632 158.803 100.357C158.69 100.081 158.632 99.7862 158.634 99.4886C158.636 99.191 158.697 98.8966 158.814 98.6227C161.087 93.0561 162.361 87.1318 162.574 81.1225C162.535 72.9312 159.25 65.0895 153.438 59.3168C147.626 53.544 139.763 50.3111 131.571 50.3269C127.608 50.2484 123.667 50.9525 119.976 52.399C116.285 53.8455 112.916 56.0058 110.06 58.7564C107.205 61.5069 104.921 64.7936 103.338 68.4283C101.755 72.063 100.904 75.9742 100.835 79.9381C100.714 81.0901 100.838 82.2548 101.199 83.3555C101.56 84.4561 102.15 85.4678 102.931 86.3238C103.711 87.1798 104.664 87.8608 105.727 88.3219C106.79 88.783 107.938 89.0138 109.096 88.9991C110.163 89.1051 111.24 88.9989 112.265 88.6864C113.29 88.374 114.243 87.8616 115.069 87.1788C115.895 86.4961 116.577 85.6564 117.077 84.7084C117.576 83.7604 117.883 82.7228 117.98 81.6555C119.046 72.4464 123.576 67.7679 131.483 67.7679C133.274 67.6773 135.065 67.9655 136.738 68.6137C138.411 69.2618 139.928 70.2554 141.191 71.5295C142.454 72.8036 143.434 74.3297 144.067 76.0081C144.701 77.6866 144.973 79.4797 144.867 81.2706C144.867 95.3063 135.983 107.092 121.178 112.747C120.971 112.771 120.763 112.771 120.556 112.747Z" fill="#1E1E1E"/>
<path d="M142.734 110.615C142.167 110.606 141.621 110.396 141.194 110.023C140.983 109.814 140.815 109.565 140.701 109.29C140.586 109.016 140.527 108.721 140.527 108.424C140.527 108.127 140.586 107.832 140.701 107.558C140.815 107.283 140.983 107.034 141.194 106.825C147.856 99.9194 151.609 90.7175 151.677 81.1225C151.677 76.5032 150.255 61.4311 131.837 61.4311C129.153 61.3367 126.478 61.7777 123.966 62.7284C121.455 63.6791 119.158 65.1205 117.209 66.9684C115.466 68.6933 114.087 70.7516 113.157 73.0205C112.226 75.2895 111.761 77.7226 111.79 80.175C111.783 80.7745 111.539 81.3469 111.112 81.7681C110.685 82.1893 110.11 82.4255 109.51 82.4254C109.212 82.4293 108.916 82.374 108.64 82.2627C108.363 82.1513 108.112 81.9862 107.9 81.7768C107.688 81.5675 107.519 81.3181 107.404 81.0431C107.289 80.7681 107.23 80.473 107.23 80.175C107.184 77.1414 107.741 74.1289 108.87 71.3127C109.998 68.4964 111.676 65.9326 113.804 63.7704C116.163 61.5061 118.948 59.7328 121.998 58.5535C125.048 57.3743 128.302 56.8124 131.571 56.9006C149.574 56.9006 155.97 69.9295 155.97 81.1225C155.931 91.803 151.798 102.062 144.422 109.786C144.218 110.039 143.962 110.245 143.67 110.388C143.378 110.531 143.059 110.609 142.734 110.615Z" fill="#1E1E1E"/>
<path d="M109.836 103.093C108.292 103.09 106.75 103.001 105.216 102.827C104.915 102.801 104.622 102.715 104.354 102.574C104.087 102.434 103.85 102.241 103.658 102.007C103.466 101.773 103.323 101.503 103.237 101.213C103.151 100.923 103.124 100.619 103.158 100.318C103.192 100.017 103.285 99.7267 103.433 99.4628C103.581 99.1989 103.78 98.9673 104.019 98.7816C104.258 98.596 104.531 98.46 104.823 98.3817C105.115 98.3035 105.42 98.2845 105.72 98.326C113.093 99.1551 118.897 97.8522 123.013 94.4173C124.91 92.7206 126.444 90.6576 127.523 88.3523C128.602 86.047 129.203 83.5472 129.29 81.0035C129.305 80.7036 129.38 80.4098 129.512 80.1399C129.643 79.87 129.828 79.6295 130.055 79.433C130.282 79.2365 130.546 79.0881 130.832 78.9966C131.118 78.9052 131.42 78.8727 131.718 78.9011C132.315 78.9466 132.871 79.2221 133.269 79.6696C133.667 80.117 133.875 80.7014 133.85 81.2996C133.726 84.4667 132.958 87.5753 131.594 90.4362C130.229 93.2971 128.297 95.8505 125.915 97.941C121.344 101.527 115.639 103.355 109.836 103.093Z" fill="#1E1E1E"/>
<path fill-rule="evenodd" clip-rule="evenodd" d="M38.655 16.3962C36.4778 14.9099 34.7203 12.8444 34.1974 10.1423C32.6911 2.35694 43.8722 1.16245 46.9928 4.45938C50.1134 7.75632 52.4864 17.6044 49.9733 19.0165C48.9711 19.5796 46.4989 19.5205 43.7929 18.752L48.0079 28.6261L39.3628 30.9425L38.655 16.3962Z" fill="#B28B67"/>
<path fill-rule="evenodd" clip-rule="evenodd" d="M41.6565 9.04835C43.2116 13.5286 44.6991 15.5784 46.1189 15.198C48.2488 14.6273 49.6967 12.803 50.6312 12.5526C51.3125 12.37 51.3868 13.2558 51.1031 14.0032C50.869 14.6199 49.1882 15.6043 49.4029 16.4056C49.6176 17.2069 50.885 16.2029 51.0123 16.6781C51.223 17.4642 51.8709 18.8748 50.4944 19.2436C49.1012 19.6169 44.9721 20.184 43.7384 18.318C42.9423 17.1138 41.9223 14.4497 40.6785 10.3257C40.5913 10.3384 40.5039 10.3563 40.4167 10.3797C39.2231 10.6995 38.5124 11.9179 38.8294 13.1009C38.9903 13.7015 39.3852 14.1776 39.8911 14.4589C39.5785 15.2925 39.2139 16.1735 38.7737 17.0997C35.9766 16.3115 33.0609 12.5913 34.3386 7.92472C34.461 5.77353 35.6541 4.32233 37.2659 3.36505C38.5211 2.40125 39.9693 1.94246 41.3007 1.96187C43.7816 1.51815 46.144 1.67087 46.8745 1.94175C47.4843 4.21785 47.2203 5.01239 43.4038 5.97123C42.6009 6.71029 42.1085 7.74441 41.6565 9.04835Z" fill="#191847"/>
<path fill-rule="evenodd" clip-rule="evenodd" d="M43.5728 61.0459L61.8761 107.193L74.1522 146.207H78.9998L60.2323 61.0459L43.5728 61.0459Z" fill="#997659"/>
<path fill-rule="evenodd" clip-rule="evenodd" d="M39.8871 61.0459C39.6922 77.2624 36.8498 99.0953 36.3957 100.106C36.0929 100.78 25.6415 109.35 5.0415 125.816L8.38031 129.375C32.6864 115.257 45.4019 107.257 46.5266 105.374C48.2138 102.55 53.7066 76.5599 58.1165 61.0459H39.8871Z" fill="#B28B67"/>
<path fill-rule="evenodd" clip-rule="evenodd" d="M4.57255 124.621C3.45123 125.017 2.67879 125.393 2.25523 125.748C1.74008 126.18 1.06037 126.897 0.216084 127.898C0.717535 128.496 5.22416 133.866 13.7359 144.01C15.4715 143.268 16.016 142.399 15.3694 141.404C14.7228 140.409 14.1937 139.576 13.7819 138.905L10.8366 128.615C10.7799 128.417 10.5735 128.302 10.3755 128.359C10.3721 128.36 10.3687 128.361 10.3653 128.362L8.79371 128.86C7.70333 128.352 6.93908 127.837 6.50097 127.315C6.14502 126.891 5.82477 126.161 5.54022 125.126C5.43103 124.729 5.02053 124.496 4.62336 124.605C4.60624 124.609 4.58929 124.615 4.57255 124.621Z" fill="#E4E4E4"/>
<path fill-rule="evenodd" clip-rule="evenodd" d="M72.1673 144.443C71.7501 145.556 71.5415 146.39 71.5415 146.942C71.5415 147.615 71.6535 148.596 71.8776 149.886C72.6577 149.886 79.6688 149.886 92.9108 149.886C93.4573 148.079 93.1418 147.104 91.9642 146.96C90.7866 146.816 89.8083 146.686 89.0294 146.57L79.2534 142.211C79.0653 142.128 78.8448 142.212 78.761 142.4C78.7595 142.403 78.7581 142.407 78.7568 142.41L78.1284 143.934C77.0382 144.443 76.1524 144.697 75.4708 144.697C74.917 144.697 74.1523 144.473 73.1765 144.026C72.8021 143.855 72.3594 144.019 72.1878 144.393C72.1804 144.41 72.1735 144.426 72.1673 144.443Z" fill="#E4E4E4"/>
<path fill-rule="evenodd" clip-rule="evenodd" d="M55.8791 142.189L78.927 139.697L61.8458 61.0459H41.2026L55.8791 142.189Z" fill="#0348CE"/>
<path fill-rule="evenodd" clip-rule="evenodd" d="M9.80859 120.074L24.9266 137.899C40.8502 120.575 50.1336 109.271 52.777 103.987C55.4204 98.7032 57.7967 84.3895 59.9058 61.0459H36.6654C35.5132 81.5826 34.7366 92.3287 34.3355 93.2844C33.9344 94.2401 25.7588 103.17 9.80859 120.074Z" fill="#0057FF"/>
<path fill-rule="evenodd" clip-rule="evenodd" d="M72.1194 52.4893L85.3434 58.9837C88.6711 59.2766 91.5127 59.8699 93.8684 60.7638C94.4524 61.1315 95.2241 61.9489 93.1075 62.1573C90.991 62.3658 88.774 62.6797 88.6108 63.4393C88.4476 64.1989 89.8608 64.8237 89.447 65.8828C89.1711 66.5888 87.0546 65.3137 83.0976 62.0572L70.6529 59.3159L72.1194 52.4893ZM27.193 60.7157L34.8729 59.3925C32.8182 75.45 31.6842 83.9778 31.4707 84.9758C30.9905 87.2213 33.3515 90.0958 34.423 91.6754C32.1149 93.2322 31.6535 89.055 28.7519 91.0748C26.1034 92.9184 24.3361 95.7243 20.6435 94.266C20.1895 94.0868 19.5736 93.2189 20.5277 92.2876C22.9048 89.9675 26.2297 86.054 26.5686 84.8991C27.0307 83.3242 27.2388 75.2631 27.193 60.7157Z" fill="#B28B67"/>
<path fill-rule="evenodd" clip-rule="evenodd" d="M43.3526 24.8252L46.4326 23.7232C60.0012 31.774 68.2717 50.3785 84.5318 58.1395L81.8116 63.0401C56.212 64.3711 45.8169 41.7322 43.3526 24.8252Z" fill="#E87613"/>
<path fill-rule="evenodd" clip-rule="evenodd" d="M36.5114 66.978C49.2446 64.7328 58.6109 63.0813 64.6103 62.0234C65.8943 61.797 65.327 59.9948 64.9773 59.0966C60.9407 48.7301 50.5365 38.6229 47.8397 23.3289L39.5117 23.4933C34.6995 35.4042 34.7103 49.0223 36.5114 66.978Z" fill="#DDE3E9"/>
<path fill-rule="evenodd" clip-rule="evenodd" d="M31.2506 35.8237C30.0141 35.6946 28.9434 35.0736 28.0386 33.9609C24.1383 29.1642 24.6918 26.047 27.688 24.5262C30.6841 23.0053 33.857 24.4903 38.9011 23.6009C39.1755 23.5526 39.4298 23.5254 39.664 23.5194L42.2267 23.216C53.8354 46.483 58.7313 62.5087 56.9145 71.2932L34.7984 75.1929C34.0242 78.4644 33.2213 81.2436 32.3899 83.5305L26.3637 84.593C22.579 66.4455 24.208 50.189 31.2506 35.8237Z" fill="#FF9B21"/>
<path fill-rule="evenodd" clip-rule="evenodd" d="M37.3911 61.7351C39.1078 67.4033 40.9793 71.4069 43.0058 73.7457L34.7984 75.1928C35.7016 71.3767 36.5658 66.8908 37.3911 61.7351Z" fill="black" fill-opacity="0.1"/>
</svg>
